<svg xmlns="http://www.w3.org/2000/svg" xmlns:xlink="http://www.w3.org/1999/xlink" width="1080" zoomAndPan="magnify" viewBox="0 0 810 809.999993" height="1080" preserveAspectRatio="xMidYMid meet" version="1.0"><defs><clipPath id="e3a148a01b"><path d="M 221 26.140625 L 590 26.140625 L 590 420 L 221 420 Z M 221 26.140625 " clip-rule="nonzero"/></clipPath><clipPath id="0753afd61c"><path d="M 61 420 L 749 420 L 749 783.640625 L 61 783.640625 Z M 61 420 " clip-rule="nonzero"/></clipPath></defs><g clip-path="url(#e3a148a01b)"><path fill="#000000" d="M 405.140625 419.066406 C 506.617188 419.066406 589.15625 311.441406 589.15625 210.046875 C 589.15625 108.652344 506.617188 26.140625 405.140625 26.140625 C 303.664062 26.140625 221.117188 108.652344 221.117188 210.046875 C 221.132812 311.433594 303.675781 419.066406 405.140625 419.066406 Z M 405.140625 419.066406 " fill-opacity="1" fill-rule="nonzero"/></g><g clip-path="url(#0753afd61c)"><path fill="#000000" d="M 543.289062 420.953125 C 507.59375 448.128906 463.0625 464.296875 414.828125 464.296875 L 395.457031 464.296875 C 347.210938 464.296875 302.671875 448.121094 266.984375 420.953125 C 150.433594 439.78125 61.433594 540.730469 61.433594 662.5 C 61.433594 729.398438 215.3125 783.640625 405.140625 783.640625 C 594.960938 783.640625 748.851562 729.398438 748.851562 662.5 C 748.851562 540.730469 659.839844 439.78125 543.289062 420.953125 Z M 543.289062 420.953125 " fill-opacity="1" fill-rule="nonzero"/></g></svg>