<svg xmlns="http://www.w3.org/2000/svg" xmlns:xlink="http://www.w3.org/1999/xlink" width="1080" zoomAndPan="magnify" viewBox="0 0 810 809.999993" height="1080" preserveAspectRatio="xMidYMid meet" version="1.0"><defs><clipPath id="6d70cd05ca"><path d="M 12.378906 171.449219 L 797.628906 171.449219 L 797.628906 638.699219 L 12.378906 638.699219 Z M 12.378906 171.449219 " clip-rule="nonzero"/></clipPath></defs><g clip-path="url(#6d70cd05ca)"><path fill="#000000" d="M 740.550781 171.5 L 69.457031 171.5 C 37.90625 171.5 12.378906 197.035156 12.378906 228.59375 L 12.378906 581.554688 C 12.378906 613.117188 37.90625 638.652344 69.457031 638.652344 L 740.550781 638.652344 C 772.097656 638.652344 797.628906 613.117188 797.628906 581.554688 L 797.628906 228.59375 C 797.628906 197.035156 772.097656 171.5 740.550781 171.5 Z M 176.972656 223.195312 C 178.632812 223.195312 180.242188 223.25 181.851562 223.351562 C 182.421875 223.40625 182.992188 223.457031 183.511719 223.457031 C 183.511719 223.457031 183.5625 223.457031 183.5625 223.457031 C 184.132812 223.507812 184.652344 223.558594 185.171875 223.613281 C 185.222656 223.613281 185.222656 223.613281 185.273438 223.613281 C 185.792969 223.664062 186.3125 223.714844 186.882812 223.820312 C 186.9375 223.820312 186.988281 223.820312 186.988281 223.820312 C 187.507812 223.871094 188.027344 223.976562 188.542969 224.078125 C 188.597656 224.078125 188.648438 224.078125 188.648438 224.078125 C 189.167969 224.183594 189.6875 224.234375 190.203125 224.339844 C 190.257812 224.339844 190.308594 224.339844 190.308594 224.390625 C 190.828125 224.496094 191.347656 224.597656 191.867188 224.703125 C 191.917969 224.703125 191.917969 224.703125 191.96875 224.703125 C 192.488281 224.804688 193.007812 224.910156 193.527344 225.066406 C 193.578125 225.066406 193.578125 225.066406 193.628906 225.066406 C 194.148438 225.167969 194.667969 225.324219 195.1875 225.429688 C 195.1875 225.429688 195.238281 225.429688 195.238281 225.429688 C 195.757812 225.585938 196.277344 225.6875 196.792969 225.84375 C 203.695312 227.816406 210.183594 230.777344 216.097656 234.617188 C 216.097656 234.617188 216.148438 234.617188 216.148438 234.667969 C 216.566406 234.929688 216.980469 235.1875 217.394531 235.5 C 217.445312 235.550781 217.5 235.550781 217.550781 235.601562 C 217.914062 235.863281 218.328125 236.121094 218.691406 236.382812 C 218.746094 236.433594 218.847656 236.484375 218.898438 236.535156 C 219.261719 236.796875 219.625 237.054688 219.988281 237.316406 C 220.09375 237.367188 220.144531 237.417969 220.25 237.523438 C 220.613281 237.78125 220.921875 238.042969 221.234375 238.300781 C 221.339844 238.355469 221.441406 238.457031 221.546875 238.507812 C 221.859375 238.769531 222.167969 239.027344 222.53125 239.289062 C 222.636719 239.390625 222.738281 239.445312 222.84375 239.546875 C 223.15625 239.808594 223.464844 240.066406 223.777344 240.324219 C 223.882812 240.429688 223.984375 240.535156 224.089844 240.585938 C 224.398438 240.84375 224.660156 241.105469 224.972656 241.363281 C 225.074219 241.46875 225.179688 241.570312 225.28125 241.675781 L 226.113281 242.453125 C 226.214844 242.558594 226.320312 242.660156 226.425781 242.765625 C 226.683594 243.023438 226.996094 243.285156 227.253906 243.597656 C 227.359375 243.699219 227.460938 243.804688 227.566406 243.960938 C 227.824219 244.21875 228.085938 244.480469 228.394531 244.789062 C 228.5 244.894531 228.601562 245.050781 228.757812 245.152344 C 229.019531 245.414062 229.277344 245.722656 229.539062 245.984375 C 229.640625 246.085938 229.746094 246.242188 229.847656 246.347656 C 230.109375 246.605469 230.367188 246.917969 230.628906 247.175781 C 230.730469 247.28125 230.835938 247.4375 230.9375 247.542969 C 231.199219 247.851562 231.457031 248.113281 231.664062 248.421875 C 231.769531 248.527344 231.871094 248.683594 231.976562 248.785156 C 232.234375 249.097656 232.441406 249.359375 232.703125 249.667969 C 232.804688 249.773438 232.910156 249.875 232.960938 250.03125 C 233.222656 250.34375 233.429688 250.65625 233.6875 250.96875 C 233.742188 251.070312 233.84375 251.175781 233.894531 251.277344 C 234.15625 251.589844 234.414062 251.953125 234.621094 252.265625 C 234.675781 252.316406 234.726562 252.421875 234.777344 252.472656 C 235.917969 254.03125 236.957031 255.691406 237.996094 257.351562 C 238.046875 257.457031 238.097656 257.558594 238.203125 257.664062 C 238.359375 257.972656 238.566406 258.285156 238.722656 258.597656 C 238.824219 258.753906 238.929688 258.960938 239.035156 259.117188 C 239.1875 259.375 239.34375 259.6875 239.5 259.945312 C 239.605469 260.152344 239.707031 260.363281 239.8125 260.570312 C 239.96875 260.828125 240.070312 261.089844 240.226562 261.398438 C 240.332031 261.609375 240.433594 261.816406 240.539062 262.023438 C 240.695312 262.28125 240.796875 262.542969 240.953125 262.800781 C 241.058594 263.007812 241.160156 263.269531 241.265625 263.476562 C 241.367188 263.734375 241.523438 263.996094 241.628906 264.253906 C 241.730469 264.515625 241.835938 264.722656 241.9375 264.980469 C 242.042969 265.242188 242.148438 265.5 242.300781 265.761719 C 242.40625 266.019531 242.511719 266.226562 242.613281 266.488281 L 242.925781 267.265625 C 243.027344 267.523438 243.132812 267.785156 243.238281 268.042969 C 243.339844 268.304688 243.445312 268.5625 243.546875 268.824219 C 243.652344 269.082031 243.753906 269.339844 243.808594 269.601562 C 243.910156 269.859375 244.015625 270.121094 244.066406 270.378906 C 244.171875 270.640625 244.273438 270.898438 244.324219 271.160156 C 244.429688 271.417969 244.480469 271.675781 244.585938 271.9375 C 244.6875 272.195312 244.742188 272.457031 244.84375 272.765625 C 244.949219 273.027344 245 273.285156 245.050781 273.546875 C 245.15625 273.804688 245.207031 274.117188 245.3125 274.375 C 245.363281 274.636719 245.46875 274.894531 245.519531 275.15625 C 245.570312 275.414062 245.675781 275.726562 245.726562 275.984375 C 245.777344 276.246094 245.832031 276.503906 245.933594 276.765625 C 245.988281 277.023438 246.039062 277.335938 246.140625 277.648438 C 246.195312 277.90625 246.246094 278.164062 246.296875 278.425781 C 246.351562 278.738281 246.402344 278.996094 246.453125 279.308594 C 246.503906 279.566406 246.558594 279.828125 246.609375 280.085938 C 246.660156 280.398438 246.714844 280.710938 246.765625 280.96875 C 246.816406 281.226562 246.867188 281.488281 246.867188 281.746094 C 246.921875 282.058594 246.972656 282.371094 246.972656 282.679688 C 247.023438 282.941406 247.023438 283.199219 247.078125 283.460938 C 247.128906 283.773438 247.128906 284.082031 247.179688 284.394531 C 247.230469 284.652344 247.230469 284.914062 247.285156 285.171875 C 247.335938 285.484375 247.335938 285.796875 247.386719 286.160156 C 247.386719 286.417969 247.441406 286.625 247.441406 286.886719 C 247.492188 287.25 247.492188 287.5625 247.492188 287.925781 C 247.492188 288.132812 247.542969 288.390625 247.542969 288.597656 C 247.542969 288.960938 247.59375 289.378906 247.59375 289.742188 C 247.59375 289.949219 247.59375 290.105469 247.59375 290.3125 C 247.59375 290.882812 247.59375 291.453125 247.59375 292.078125 C 247.59375 292.648438 247.59375 293.21875 247.59375 293.839844 C 247.59375 294.050781 247.59375 294.203125 247.59375 294.414062 C 247.59375 294.777344 247.542969 295.191406 247.542969 295.554688 C 247.542969 295.761719 247.492188 296.019531 247.492188 296.230469 C 247.492188 296.59375 247.441406 296.902344 247.441406 297.265625 C 247.441406 297.527344 247.386719 297.734375 247.386719 297.992188 C 247.335938 298.304688 247.335938 298.617188 247.285156 298.980469 C 247.285156 299.238281 247.230469 299.5 247.179688 299.757812 C 247.128906 300.070312 247.128906 300.382812 247.078125 300.691406 C 247.023438 300.953125 247.023438 301.210938 246.972656 301.472656 C 246.921875 301.78125 246.867188 302.09375 246.867188 302.40625 C 246.816406 302.664062 246.765625 302.925781 246.765625 303.183594 C 246.714844 303.496094 246.660156 303.808594 246.609375 304.066406 C 246.558594 304.328125 246.503906 304.585938 246.453125 304.84375 C 246.402344 305.15625 246.351562 305.417969 246.296875 305.726562 C 246.246094 305.988281 246.195312 306.246094 246.140625 306.507812 C 246.089844 306.816406 246.039062 307.078125 245.933594 307.390625 C 245.882812 307.648438 245.832031 307.90625 245.726562 308.167969 C 245.675781 308.425781 245.570312 308.738281 245.519531 308.996094 C 245.46875 309.257812 245.363281 309.515625 245.3125 309.777344 C 245.261719 310.035156 245.15625 310.347656 245.105469 310.605469 C 245.050781 310.867188 244.949219 311.125 244.898438 311.386719 C 244.84375 311.644531 244.742188 311.90625 244.636719 312.214844 C 244.585938 312.476562 244.480469 312.734375 244.378906 312.996094 C 244.273438 313.253906 244.222656 313.515625 244.117188 313.773438 C 244.015625 314.03125 243.960938 314.292969 243.859375 314.550781 C 243.753906 314.8125 243.652344 315.070312 243.601562 315.332031 C 243.496094 315.589844 243.390625 315.847656 243.289062 316.109375 C 243.183594 316.367188 243.082031 316.628906 242.976562 316.886719 L 242.664062 317.667969 C 242.5625 317.925781 242.457031 318.132812 242.355469 318.394531 C 242.25 318.652344 242.148438 318.910156 241.992188 319.171875 C 241.886719 319.429688 241.785156 319.636719 241.679688 319.898438 C 241.574219 320.15625 241.421875 320.417969 241.316406 320.675781 C 241.210938 320.882812 241.109375 321.144531 241.003906 321.351562 C 240.902344 321.609375 240.746094 321.871094 240.589844 322.128906 C 240.484375 322.335938 240.382812 322.546875 240.277344 322.804688 C 240.121094 323.0625 240.019531 323.375 239.863281 323.636719 C 239.757812 323.84375 239.65625 324.050781 239.550781 324.257812 C 239.398438 324.519531 239.242188 324.828125 239.085938 325.089844 C 238.980469 325.246094 238.878906 325.453125 238.773438 325.609375 C 238.617188 325.917969 238.410156 326.230469 238.253906 326.542969 C 238.203125 326.644531 238.152344 326.75 238.046875 326.855469 C 237.0625 328.515625 235.972656 330.125 234.832031 331.734375 C 234.777344 331.785156 234.726562 331.886719 234.675781 331.941406 C 234.414062 332.25 234.207031 332.613281 233.949219 332.925781 C 233.894531 333.03125 233.792969 333.132812 233.742188 333.238281 C 233.480469 333.550781 233.273438 333.859375 233.015625 334.171875 C 232.910156 334.277344 232.804688 334.433594 232.753906 334.535156 C 232.496094 334.847656 232.289062 335.105469 232.027344 335.417969 C 231.925781 335.523438 231.820312 335.675781 231.71875 335.78125 C 231.457031 336.09375 231.25 336.351562 230.992188 336.664062 C 230.886719 336.769531 230.78125 336.921875 230.679688 337.027344 C 230.417969 337.285156 230.160156 337.597656 229.902344 337.859375 C 229.796875 337.960938 229.691406 338.117188 229.589844 338.222656 C 229.328125 338.480469 229.070312 338.792969 228.8125 339.050781 C 228.707031 339.15625 228.601562 339.257812 228.5 339.414062 C 228.238281 339.675781 227.980469 339.984375 227.667969 340.246094 C 227.566406 340.347656 227.460938 340.453125 227.359375 340.558594 C 227.097656 340.816406 226.789062 341.074219 226.527344 341.386719 C 226.425781 341.492188 226.320312 341.59375 226.214844 341.699219 C 225.90625 341.957031 225.644531 342.21875 225.386719 342.476562 C 225.28125 342.582031 225.179688 342.683594 225.074219 342.789062 C 224.761719 343.046875 224.503906 343.308594 224.191406 343.566406 C 224.089844 343.671875 223.984375 343.773438 223.882812 343.828125 C 223.570312 344.085938 223.257812 344.347656 222.949219 344.605469 C 222.84375 344.710938 222.738281 344.761719 222.636719 344.863281 C 222.324219 345.125 222.011719 345.382812 221.648438 345.644531 L 221.390625 345.851562 C 221.027344 346.109375 220.714844 346.371094 220.351562 346.628906 C 220.25 346.683594 220.195312 346.734375 220.09375 346.835938 C 219.730469 347.097656 219.367188 347.355469 219.003906 347.617188 C 218.953125 347.667969 218.847656 347.71875 218.796875 347.773438 C 218.433594 348.03125 218.019531 348.289062 217.65625 348.550781 C 217.601562 348.601562 217.550781 348.601562 217.5 348.652344 C 217.082031 348.914062 216.667969 349.226562 216.253906 349.484375 C 216.253906 349.484375 216.203125 349.484375 216.203125 349.535156 C 209.871094 353.636719 202.867188 356.75 195.34375 358.722656 C 195.34375 358.722656 195.289062 358.722656 195.289062 358.722656 C 194.769531 358.878906 194.253906 358.984375 193.734375 359.085938 C 193.679688 359.085938 193.679688 359.085938 193.679688 359.085938 C 193.164062 359.191406 192.644531 359.347656 192.125 359.449219 C 192.074219 359.449219 192.074219 359.449219 192.019531 359.449219 C 191.503906 359.554688 190.984375 359.660156 190.464844 359.761719 C 190.414062 359.761719 190.414062 359.761719 190.359375 359.761719 C 189.839844 359.867188 189.324219 359.96875 188.804688 360.023438 C 188.75 360.023438 188.75 360.023438 188.699219 360.023438 C 188.179688 360.125 187.664062 360.175781 187.089844 360.28125 C 187.039062 360.28125 187.039062 360.28125 186.988281 360.28125 C 186.46875 360.332031 185.898438 360.4375 185.378906 360.488281 C 185.378906 360.488281 185.328125 360.488281 185.328125 360.488281 C 184.757812 360.539062 184.238281 360.59375 183.667969 360.644531 C 183.667969 360.644531 183.667969 360.644531 183.613281 360.644531 C 181.433594 360.851562 179.257812 360.957031 177.023438 360.957031 C 137.953125 360.957031 106.246094 330.125 106.246094 292.023438 C 106.246094 254.082031 137.898438 223.195312 176.972656 223.195312 Z M 50.101562 530.742188 L 50.101562 489.632812 C 50.050781 485.269531 50.050781 480.859375 50.050781 476.5 C 50.050781 425.214844 90.628906 383.585938 140.648438 383.585938 L 205.410156 383.585938 C 206.1875 383.585938 206.964844 383.585938 207.742188 383.585938 C 246.609375 384.625 279.351562 410.683594 291.234375 446.652344 C 294.296875 455.996094 296.007812 466.011719 296.007812 476.445312 C 296.007812 480.808594 296.007812 485.21875 295.957031 489.578125 L 296.058594 489.578125 L 296.058594 530.6875 L 50.101562 530.6875 Z M 702.097656 591.9375 L 189.21875 591.9375 L 189.21875 574.652344 L 702.097656 574.652344 Z M 702.515625 431.027344 L 353.140625 431.027344 L 353.140625 413.746094 L 702.515625 413.746094 Z M 702.515625 389.503906 L 353.140625 389.503906 L 353.140625 372.21875 L 702.515625 372.21875 Z M 702.515625 347.980469 L 353.140625 347.980469 L 353.140625 330.695312 L 702.515625 330.695312 Z M 702.515625 304.742188 L 353.140625 304.742188 L 353.140625 287.457031 L 702.515625 287.457031 Z M 702.515625 304.742188 " fill-opacity="1" fill-rule="nonzero"/></g></svg>