<svg xmlns="http://www.w3.org/2000/svg" xmlns:xlink="http://www.w3.org/1999/xlink" width="1080" zoomAndPan="magnify" viewBox="0 0 810 809.999993" height="1080" preserveAspectRatio="xMidYMid meet" version="1.0"><defs><clipPath id="8b05b7eb54"><path d="M 38 35 L 773 35 L 773 799.390625 L 38 799.390625 Z M 38 35 " clip-rule="nonzero"/></clipPath></defs><g clip-path="url(#8b05b7eb54)"><path fill="#000000" d="M 770.5 799.347656 C 649.46875 799.347656 528.539062 799.347656 407.609375 799.347656 C 406.183594 799.347656 404.75 799.347656 403.328125 799.347656 C 282.398438 799.347656 161.46875 799.347656 40.4375 799.347656 C 37.800781 789.695312 38.453125 779.769531 39.671875 769.914062 C 41.570312 754.589844 46.25 740.015625 52.464844 725.921875 C 59.824219 709.226562 73.246094 698.082031 87.851562 688.210938 C 114.457031 670.226562 143.984375 658.046875 173.429688 645.75 C 194.605469 636.910156 215.921875 628.367188 237.03125 619.386719 C 296.886719 592.453125 304.863281 571.851562 305.769531 568.613281 C 306.203125 566.730469 306.515625 564.800781 306.703125 562.832031 C 307.128906 558.351562 307.464844 553.859375 307.761719 549.359375 L 307.761719 537.707031 C 178.40625 538.851562 140.296875 483.433594 140.296875 483.433594 C 140.296875 483.433594 214.21875 482.289062 209.640625 287.261719 C 205.070312 92.222656 295.011719 60.015625 328.542969 47.261719 C 426.175781 10.160156 475.238281 69.171875 475.238281 69.171875 C 588.410156 58.703125 619.640625 182.292969 605.738281 323.046875 C 591.835938 463.804688 669.1875 485.703125 669.1875 485.703125 C 616.039062 539.976562 504.011719 536.542969 504.011719 536.542969 L 504.011719 560.460938 C 504.078125 561.238281 504.136719 562.027344 504.214844 562.808594 C 504.402344 564.765625 504.714844 566.699219 505.148438 568.585938 C 506.0625 571.832031 514.03125 592.4375 573.886719 619.359375 C 594.996094 628.34375 616.308594 636.894531 637.488281 645.726562 C 666.941406 658.011719 696.460938 670.191406 723.066406 688.183594 C 737.671875 698.066406 751.09375 709.199219 758.453125 725.894531 C 764.664062 739.980469 769.347656 754.566406 771.246094 769.890625 C 772.484375 779.761719 773.136719 789.695312 770.5 799.347656 Z M 770.5 799.347656 " fill-opacity="1" fill-rule="nonzero"/></g></svg>