<svg xmlns="http://www.w3.org/2000/svg" xmlns:xlink="http://www.w3.org/1999/xlink" width="1080" zoomAndPan="magnify" viewBox="0 0 810 809.999993" height="1080" preserveAspectRatio="xMidYMid meet" version="1.0"><defs><clipPath id="5f53f057fd"><path d="M 29.179688 29.179688 L 780.679688 29.179688 L 780.679688 780.679688 L 29.179688 780.679688 Z M 29.179688 29.179688 " clip-rule="nonzero"/></clipPath></defs><g clip-path="url(#5f53f057fd)"><path fill="#000000" d="M 404.929688 29.179688 C 398.78125 29.179688 392.636719 29.332031 386.492188 29.632812 C 380.351562 29.933594 374.21875 30.386719 368.101562 30.988281 C 361.980469 31.59375 355.878906 32.34375 349.796875 33.246094 C 343.714844 34.148438 337.65625 35.199219 331.625 36.398438 C 325.59375 37.601562 319.597656 38.945312 313.628906 40.441406 C 307.664062 41.933594 301.742188 43.574219 295.855469 45.359375 C 289.972656 47.144531 284.132812 49.074219 278.34375 51.144531 C 272.554688 53.21875 266.820312 55.429688 261.136719 57.78125 C 255.457031 60.136719 249.835938 62.628906 244.277344 65.257812 C 238.71875 67.886719 233.226562 70.648438 227.804688 73.546875 C 222.378906 76.449219 217.03125 79.476562 211.757812 82.640625 C 206.480469 85.800781 201.289062 89.089844 196.175781 92.503906 C 191.0625 95.921875 186.035156 99.460938 181.097656 103.125 C 176.15625 106.789062 171.3125 110.570312 166.558594 114.472656 C 161.804688 118.371094 157.148438 122.386719 152.59375 126.519531 C 148.035156 130.648438 143.582031 134.886719 139.234375 139.234375 C 134.886719 143.582031 130.648438 148.035156 126.519531 152.59375 C 122.386719 157.148438 118.371094 161.804688 114.472656 166.558594 C 110.570312 171.3125 106.789062 176.15625 103.125 181.097656 C 99.460938 186.035156 95.921875 191.0625 92.503906 196.175781 C 89.089844 201.289062 85.800781 206.480469 82.640625 211.757812 C 79.476562 217.03125 76.449219 222.378906 73.546875 227.804688 C 70.648438 233.226562 67.886719 238.71875 65.257812 244.277344 C 62.628906 249.835938 60.136719 255.457031 57.78125 261.136719 C 55.429688 266.820312 53.21875 272.554688 51.144531 278.34375 C 49.074219 284.132812 47.144531 289.972656 45.359375 295.855469 C 43.574219 301.742188 41.933594 307.664062 40.441406 313.628906 C 38.945312 319.597656 37.601562 325.59375 36.398438 331.625 C 35.199219 337.65625 34.148438 343.714844 33.246094 349.796875 C 32.34375 355.878906 31.59375 361.980469 30.988281 368.101562 C 30.386719 374.21875 29.933594 380.351562 29.632812 386.492188 C 29.332031 392.636719 29.179688 398.78125 29.179688 404.929688 C 29.179688 411.078125 29.332031 417.226562 29.632812 423.367188 C 29.933594 429.507812 30.386719 435.640625 30.988281 441.761719 C 31.59375 447.878906 32.34375 453.980469 33.246094 460.0625 C 34.148438 466.148438 35.199219 472.203125 36.398438 478.234375 C 37.601562 484.265625 38.945312 490.265625 40.441406 496.230469 C 41.933594 502.195312 43.574219 508.121094 45.359375 514.003906 C 47.144531 519.890625 49.074219 525.726562 51.144531 531.515625 C 53.21875 537.304688 55.429688 543.042969 57.78125 548.722656 C 60.136719 554.40625 62.628906 560.023438 65.257812 565.585938 C 67.886719 571.144531 70.648438 576.632812 73.546875 582.058594 C 76.449219 587.480469 79.476562 592.828125 82.640625 598.105469 C 85.800781 603.378906 89.089844 608.574219 92.503906 613.6875 C 95.921875 618.796875 99.460938 623.824219 103.125 628.765625 C 106.789062 633.703125 110.570312 638.550781 114.472656 643.304688 C 118.371094 648.058594 122.386719 652.710938 126.519531 657.269531 C 130.648438 661.824219 134.886719 666.277344 139.234375 670.625 C 143.582031 674.972656 148.035156 679.214844 152.59375 683.34375 C 157.148438 687.472656 161.804688 691.488281 166.558594 695.390625 C 171.3125 699.289062 176.15625 703.074219 181.097656 706.734375 C 186.035156 710.398438 191.0625 713.9375 196.175781 717.355469 C 201.289062 720.769531 206.480469 724.058594 211.757812 727.222656 C 217.03125 730.382812 222.378906 733.414062 227.804688 736.3125 C 233.226562 739.210938 238.71875 741.976562 244.277344 744.605469 C 249.835938 747.234375 255.457031 749.722656 261.136719 752.078125 C 266.820312 754.429688 272.554688 756.644531 278.34375 758.714844 C 284.132812 760.785156 289.972656 762.714844 295.855469 764.5 C 301.742188 766.285156 307.664062 767.925781 313.628906 769.417969 C 319.597656 770.914062 325.59375 772.261719 331.625 773.460938 C 337.65625 774.660156 343.714844 775.710938 349.796875 776.613281 C 355.878906 777.515625 361.980469 778.269531 368.101562 778.871094 C 374.21875 779.472656 380.351562 779.925781 386.492188 780.226562 C 392.636719 780.53125 398.78125 780.679688 404.929688 780.679688 C 411.078125 780.679688 417.226562 780.53125 423.367188 780.226562 C 429.507812 779.925781 435.640625 779.472656 441.761719 778.871094 C 447.878906 778.269531 453.980469 777.515625 460.0625 776.613281 C 466.148438 775.710938 472.203125 774.660156 478.234375 773.460938 C 484.265625 772.261719 490.265625 770.914062 496.230469 769.417969 C 502.195312 767.925781 508.121094 766.285156 514.003906 764.5 C 519.890625 762.714844 525.726562 760.785156 531.515625 758.714844 C 537.308594 756.644531 543.042969 754.429688 548.722656 752.078125 C 554.40625 749.722656 560.023438 747.234375 565.585938 744.605469 C 571.144531 741.976562 576.632812 739.210938 582.058594 736.3125 C 587.480469 733.414062 592.828125 730.382812 598.105469 727.222656 C 603.378906 724.058594 608.574219 720.769531 613.6875 717.355469 C 618.796875 713.9375 623.824219 710.398438 628.765625 706.734375 C 633.703125 703.074219 638.550781 699.289062 643.304688 695.390625 C 648.058594 691.488281 652.710938 687.472656 657.269531 683.34375 C 661.824219 679.214844 666.277344 674.972656 670.625 670.625 C 674.972656 666.277344 679.214844 661.824219 683.34375 657.269531 C 687.472656 652.710938 691.488281 648.058594 695.390625 643.304688 C 699.289062 638.550781 703.074219 633.703125 706.734375 628.765625 C 710.398438 623.824219 713.9375 618.800781 717.355469 613.6875 C 720.769531 608.574219 724.058594 603.378906 727.222656 598.105469 C 730.382812 592.828125 733.414062 587.480469 736.3125 582.058594 C 739.210938 576.632812 741.976562 571.144531 744.605469 565.585938 C 747.234375 560.023438 749.722656 554.40625 752.078125 548.722656 C 754.429688 543.042969 756.644531 537.304688 758.714844 531.515625 C 760.785156 525.726562 762.714844 519.890625 764.5 514.003906 C 766.285156 508.121094 767.925781 502.195312 769.417969 496.230469 C 770.914062 490.265625 772.261719 484.265625 773.460938 478.234375 C 774.660156 472.203125 775.710938 466.148438 776.613281 460.0625 C 777.515625 453.980469 778.269531 447.878906 778.871094 441.761719 C 779.472656 435.640625 779.925781 429.507812 780.226562 423.367188 C 780.53125 417.226562 780.679688 411.078125 780.679688 404.929688 C 780.679688 398.78125 780.53125 392.636719 780.226562 386.492188 C 779.925781 380.351562 779.472656 374.21875 778.871094 368.101562 C 778.269531 361.980469 777.515625 355.878906 776.613281 349.796875 C 775.710938 343.714844 774.660156 337.65625 773.460938 331.625 C 772.261719 325.59375 770.914062 319.597656 769.417969 313.628906 C 767.925781 307.664062 766.285156 301.742188 764.5 295.855469 C 762.714844 289.972656 760.785156 284.132812 758.714844 278.34375 C 756.644531 272.554688 754.429688 266.820312 752.078125 261.136719 C 749.722656 255.457031 747.234375 249.835938 744.605469 244.277344 C 741.976562 238.71875 739.210938 233.226562 736.3125 227.804688 C 733.414062 222.378906 730.382812 217.03125 727.222656 211.757812 C 724.058594 206.480469 720.769531 201.289062 717.355469 196.175781 C 713.9375 191.0625 710.398438 186.035156 706.734375 181.097656 C 703.074219 176.15625 699.289062 171.3125 695.390625 166.558594 C 691.488281 161.804688 687.472656 157.148438 683.34375 152.59375 C 679.214844 148.035156 674.972656 143.582031 670.625 139.234375 C 666.277344 134.886719 661.824219 130.648438 657.269531 126.519531 C 652.710938 122.386719 648.058594 118.371094 643.304688 114.472656 C 638.550781 110.570312 633.703125 106.789062 628.765625 103.125 C 623.824219 99.460938 618.800781 95.921875 613.6875 92.503906 C 608.574219 89.089844 603.378906 85.800781 598.105469 82.640625 C 592.828125 79.476562 587.480469 76.449219 582.058594 73.546875 C 576.632812 70.648438 571.144531 67.886719 565.585938 65.257812 C 560.023438 62.628906 554.40625 60.136719 548.722656 57.78125 C 543.042969 55.429688 537.308594 53.21875 531.515625 51.144531 C 525.726562 49.074219 519.890625 47.144531 514.003906 45.359375 C 508.121094 43.574219 502.195312 41.933594 496.230469 40.441406 C 490.265625 38.945312 484.265625 37.601562 478.234375 36.398438 C 472.203125 35.199219 466.148438 34.148438 460.0625 33.246094 C 453.980469 32.34375 447.878906 31.59375 441.761719 30.988281 C 435.640625 30.386719 429.507812 29.933594 423.367188 29.632812 C 417.226562 29.332031 411.078125 29.179688 404.929688 29.179688 Z M 404.929688 715.332031 C 399.851562 715.332031 394.773438 715.207031 389.699219 714.957031 C 384.625 714.710938 379.5625 714.335938 374.503906 713.839844 C 369.449219 713.339844 364.410156 712.71875 359.386719 711.972656 C 354.359375 711.226562 349.355469 710.359375 344.375 709.367188 C 339.390625 708.378906 334.4375 707.265625 329.507812 706.03125 C 324.582031 704.796875 319.6875 703.441406 314.824219 701.964844 C 309.964844 700.492188 305.140625 698.898438 300.359375 697.1875 C 295.574219 695.476562 290.839844 693.648438 286.144531 691.703125 C 281.453125 689.761719 276.808594 687.703125 272.214844 685.53125 C 267.625 683.359375 263.089844 681.074219 258.609375 678.679688 C 254.128906 676.285156 249.710938 673.78125 245.351562 671.171875 C 240.996094 668.558594 236.703125 665.84375 232.480469 663.019531 C 228.257812 660.199219 224.105469 657.273438 220.023438 654.246094 C 215.945312 651.222656 211.941406 648.097656 208.011719 644.875 C 204.085938 641.652344 200.242188 638.335938 196.476562 634.921875 C 192.714844 631.511719 189.035156 628.011719 185.441406 624.417969 C 181.851562 620.824219 178.347656 617.148438 174.9375 613.382812 C 171.527344 609.621094 168.207031 605.773438 164.984375 601.847656 C 161.761719 597.921875 158.640625 593.917969 155.613281 589.835938 C 152.585938 585.757812 149.664062 581.605469 146.839844 577.378906 C 144.019531 573.15625 141.300781 568.867188 138.691406 564.507812 C 136.078125 560.152344 133.574219 555.734375 131.179688 551.253906 C 128.785156 546.773438 126.503906 542.238281 124.332031 537.644531 C 122.160156 533.050781 120.101562 528.410156 118.15625 523.714844 C 116.210938 519.023438 114.382812 514.285156 112.671875 509.5 C 110.960938 504.71875 109.367188 499.898438 107.894531 495.035156 C 106.417969 490.175781 105.066406 485.28125 103.832031 480.351562 C 102.597656 475.425781 101.484375 470.46875 100.492188 465.488281 C 99.5 460.503906 98.632812 455.5 97.886719 450.476562 C 97.140625 445.449219 96.519531 440.410156 96.023438 435.355469 C 95.523438 430.300781 95.152344 425.234375 94.902344 420.160156 C 94.652344 415.085938 94.527344 410.011719 94.527344 404.929688 C 94.527344 399.851562 94.652344 394.773438 94.902344 389.699219 C 95.152344 384.625 95.523438 379.5625 96.023438 374.503906 C 96.519531 369.449219 97.140625 364.410156 97.886719 359.386719 C 98.632812 354.359375 99.5 349.355469 100.492188 344.375 C 101.484375 339.390625 102.597656 334.4375 103.832031 329.507812 C 105.066406 324.582031 106.417969 319.6875 107.894531 314.824219 C 109.367188 309.964844 110.960938 305.140625 112.671875 300.359375 C 114.382812 295.574219 116.210938 290.839844 118.15625 286.144531 C 120.101562 281.453125 122.15625 276.808594 124.332031 272.214844 C 126.503906 267.625 128.785156 263.089844 131.179688 258.609375 C 133.574219 254.128906 136.078125 249.710938 138.691406 245.351562 C 141.300781 240.996094 144.019531 236.703125 146.839844 232.480469 C 149.664062 228.257812 152.585938 224.105469 155.613281 220.023438 C 158.640625 215.945312 161.761719 211.941406 164.984375 208.011719 C 168.207031 204.085938 171.527344 200.242188 174.9375 196.476562 C 178.347656 192.714844 181.851562 189.035156 185.441406 185.441406 C 189.035156 181.851562 192.714844 178.347656 196.476562 174.9375 C 200.242188 171.527344 204.085938 168.207031 208.011719 164.984375 C 211.941406 161.761719 215.945312 158.640625 220.023438 155.613281 C 224.105469 152.585938 228.257812 149.664062 232.480469 146.839844 C 236.703125 144.019531 240.996094 141.300781 245.351562 138.691406 C 249.710938 136.078125 254.128906 133.574219 258.609375 131.179688 C 263.089844 128.785156 267.625 126.503906 272.214844 124.332031 C 276.808594 122.160156 281.453125 120.101562 286.144531 118.15625 C 290.839844 116.210938 295.574219 114.382812 300.359375 112.671875 C 305.140625 110.960938 309.964844 109.367188 314.824219 107.894531 C 319.6875 106.417969 324.582031 105.066406 329.507812 103.832031 C 334.4375 102.597656 339.390625 101.484375 344.375 100.492188 C 349.355469 99.5 354.359375 98.632812 359.386719 97.886719 C 364.410156 97.140625 369.449219 96.519531 374.503906 96.023438 C 379.5625 95.523438 384.625 95.152344 389.699219 94.902344 C 394.773438 94.652344 399.851562 94.527344 404.929688 94.527344 C 410.011719 94.527344 415.085938 94.652344 420.160156 94.902344 C 425.234375 95.152344 430.300781 95.523438 435.355469 96.023438 C 440.410156 96.519531 445.449219 97.140625 450.476562 97.886719 C 455.5 98.632812 460.503906 99.5 465.488281 100.492188 C 470.46875 101.484375 475.425781 102.597656 480.351562 103.832031 C 485.28125 105.066406 490.175781 106.417969 495.035156 107.894531 C 499.898438 109.367188 504.71875 110.960938 509.5 112.671875 C 514.285156 114.382812 519.023438 116.210938 523.714844 118.15625 C 528.410156 120.101562 533.050781 122.15625 537.644531 124.332031 C 542.238281 126.503906 546.773438 128.785156 551.253906 131.179688 C 555.734375 133.574219 560.152344 136.078125 564.507812 138.691406 C 568.867188 141.300781 573.15625 144.019531 577.378906 146.839844 C 581.605469 149.664062 585.757812 152.585938 589.835938 155.613281 C 593.917969 158.640625 597.921875 161.761719 601.847656 164.984375 C 605.773438 168.207031 609.621094 171.527344 613.382812 174.9375 C 617.148438 178.347656 620.824219 181.851562 624.417969 185.441406 C 628.011719 189.035156 631.511719 192.714844 634.921875 196.476562 C 638.335938 200.242188 641.652344 204.085938 644.875 208.011719 C 648.097656 211.941406 651.222656 215.945312 654.246094 220.023438 C 657.273438 224.105469 660.199219 228.257812 663.019531 232.480469 C 665.84375 236.703125 668.558594 240.996094 671.171875 245.351562 C 673.78125 249.710938 676.285156 254.128906 678.679688 258.609375 C 681.074219 263.089844 683.359375 267.625 685.53125 272.214844 C 687.703125 276.808594 689.761719 281.453125 691.703125 286.144531 C 693.648438 290.839844 695.476562 295.574219 697.1875 300.359375 C 698.898438 305.140625 700.492188 309.964844 701.964844 314.824219 C 703.441406 319.6875 704.796875 324.582031 706.03125 329.507812 C 707.265625 334.4375 708.378906 339.390625 709.367188 344.375 C 710.359375 349.355469 711.226562 354.359375 711.972656 359.386719 C 712.71875 364.410156 713.339844 369.449219 713.839844 374.503906 C 714.335938 379.5625 714.710938 384.625 714.957031 389.699219 C 715.207031 394.773438 715.332031 399.851562 715.332031 404.929688 C 715.332031 410.011719 715.207031 415.085938 714.957031 420.160156 C 714.710938 425.234375 714.335938 430.300781 713.839844 435.355469 C 713.339844 440.410156 712.71875 445.449219 711.972656 450.476562 C 711.226562 455.5 710.359375 460.503906 709.367188 465.488281 C 708.378906 470.46875 707.265625 475.425781 706.03125 480.351562 C 704.796875 485.28125 703.441406 490.175781 701.964844 495.035156 C 700.492188 499.898438 698.898438 504.71875 697.1875 509.5 C 695.476562 514.285156 693.648438 519.023438 691.703125 523.714844 C 689.761719 528.410156 687.703125 533.050781 685.53125 537.644531 C 683.359375 542.238281 681.074219 546.773438 678.679688 551.253906 C 676.285156 555.734375 673.78125 560.152344 671.171875 564.507812 C 668.558594 568.867188 665.84375 573.15625 663.019531 577.378906 C 660.199219 581.605469 657.273438 585.757812 654.246094 589.835938 C 651.222656 593.917969 648.097656 597.921875 644.875 601.847656 C 641.652344 605.773438 638.335938 609.621094 634.921875 613.382812 C 631.511719 617.148438 628.011719 620.824219 624.417969 624.417969 C 620.824219 628.011719 617.148438 631.511719 613.382812 634.921875 C 609.621094 638.335938 605.773438 641.652344 601.847656 644.875 C 597.921875 648.097656 593.917969 651.222656 589.835938 654.246094 C 585.757812 657.273438 581.605469 660.199219 577.378906 663.019531 C 573.15625 665.84375 568.867188 668.558594 564.507812 671.171875 C 560.152344 673.78125 555.734375 676.285156 551.253906 678.679688 C 546.773438 681.074219 542.238281 683.359375 537.644531 685.53125 C 533.050781 687.703125 528.410156 689.761719 523.714844 691.703125 C 519.023438 693.648438 514.285156 695.476562 509.5 697.1875 C 504.71875 698.898438 499.898438 700.492188 495.035156 701.964844 C 490.175781 703.441406 485.28125 704.796875 480.351562 706.03125 C 475.425781 707.265625 470.46875 708.378906 465.488281 709.367188 C 460.503906 710.359375 455.5 711.226562 450.476562 711.972656 C 445.449219 712.71875 440.410156 713.339844 435.355469 713.839844 C 430.300781 714.335938 425.234375 714.710938 420.160156 714.957031 C 415.085938 715.207031 410.011719 715.332031 404.929688 715.332031 Z M 404.929688 715.332031 " fill-opacity="1" fill-rule="nonzero"/></g><path fill="#000000" d="M 437.605469 384.019531 L 437.605469 282.566406 C 445.519531 284.527344 453.070312 287.425781 460.257812 291.269531 C 467.449219 295.113281 474.054688 299.78125 480.082031 305.273438 C 480.855469 306.011719 481.667969 306.710938 482.511719 307.371094 C 483.355469 308.03125 484.230469 308.644531 485.136719 309.21875 C 486.039062 309.789062 486.972656 310.316406 487.925781 310.800781 C 488.882812 311.28125 489.863281 311.714844 490.863281 312.097656 C 491.859375 312.484375 492.878906 312.820312 493.910156 313.105469 C 494.941406 313.390625 495.984375 313.625 497.039062 313.808594 C 498.097656 313.992188 499.15625 314.121094 500.226562 314.199219 C 501.292969 314.277344 502.363281 314.304688 503.433594 314.277344 C 504.503906 314.253906 505.570312 314.171875 506.632812 314.042969 C 507.699219 313.910156 508.75 313.726562 509.796875 313.492188 C 510.839844 313.257812 511.871094 312.972656 512.890625 312.636719 C 513.90625 312.300781 514.902344 311.914062 515.882812 311.480469 C 516.863281 311.046875 517.816406 310.566406 518.75 310.035156 C 519.679688 309.507812 520.585938 308.9375 521.460938 308.320312 C 522.335938 307.703125 523.179688 307.042969 523.988281 306.34375 C 524.800781 305.644531 525.574219 304.90625 526.3125 304.132812 C 527.050781 303.355469 527.75 302.546875 528.410156 301.699219 C 529.070312 300.855469 529.683594 299.980469 530.257812 299.078125 C 530.828125 298.171875 531.355469 297.242188 531.839844 296.285156 C 532.320312 295.328125 532.753906 294.347656 533.136719 293.351562 C 533.523438 292.351562 533.859375 291.335938 534.144531 290.300781 C 534.429688 289.269531 534.664062 288.226562 534.847656 287.171875 C 535.03125 286.117188 535.160156 285.054688 535.238281 283.984375 C 535.316406 282.917969 535.34375 281.847656 535.316406 280.777344 C 535.289062 279.707031 535.210938 278.640625 535.082031 277.578125 C 534.949219 276.515625 534.765625 275.460938 534.53125 274.414062 C 534.296875 273.371094 534.011719 272.339844 533.675781 271.324219 C 533.339844 270.304688 532.953125 269.308594 532.519531 268.328125 C 532.085938 267.347656 531.605469 266.394531 531.074219 265.460938 C 530.546875 264.53125 529.976562 263.625 529.359375 262.75 C 528.742188 261.875 528.082031 261.03125 527.382812 260.222656 C 526.683594 259.410156 525.945312 258.636719 525.171875 257.898438 C 519.097656 252.34375 512.65625 247.257812 505.835938 242.648438 C 499.019531 238.035156 491.90625 233.945312 484.488281 230.378906 C 477.074219 226.808594 469.4375 223.796875 461.582031 221.347656 C 453.726562 218.894531 445.734375 217.027344 437.605469 215.75 L 437.605469 174.414062 C 437.605469 173.347656 437.550781 172.277344 437.445312 171.214844 C 437.34375 170.148438 437.183594 169.089844 436.976562 168.042969 C 436.769531 166.992188 436.507812 165.957031 436.199219 164.929688 C 435.886719 163.90625 435.527344 162.902344 435.117188 161.914062 C 434.707031 160.921875 434.25 159.957031 433.746094 159.011719 C 433.242188 158.070312 432.691406 157.152344 432.097656 156.261719 C 431.503906 155.375 430.867188 154.515625 430.1875 153.6875 C 429.507812 152.859375 428.789062 152.070312 428.035156 151.3125 C 427.277344 150.554688 426.484375 149.835938 425.660156 149.160156 C 424.832031 148.480469 423.972656 147.84375 423.082031 147.25 C 422.191406 146.652344 421.277344 146.105469 420.332031 145.601562 C 419.390625 145.097656 418.421875 144.640625 417.433594 144.230469 C 416.445312 143.820312 415.4375 143.460938 414.414062 143.148438 C 413.390625 142.839844 412.355469 142.578125 411.304688 142.371094 C 410.253906 142.160156 409.199219 142.003906 408.132812 141.898438 C 407.066406 141.792969 406 141.742188 404.929688 141.742188 C 403.859375 141.742188 402.792969 141.792969 401.726562 141.898438 C 400.664062 142.003906 399.605469 142.160156 398.554688 142.371094 C 397.507812 142.578125 396.46875 142.839844 395.445312 143.148438 C 394.421875 143.460938 393.414062 143.820312 392.425781 144.230469 C 391.4375 144.640625 390.472656 145.097656 389.527344 145.601562 C 388.585938 146.105469 387.667969 146.652344 386.777344 147.25 C 385.886719 147.84375 385.03125 148.480469 384.203125 149.160156 C 383.375 149.835938 382.582031 150.554688 381.828125 151.3125 C 381.070312 152.070312 380.351562 152.859375 379.671875 153.6875 C 378.996094 154.515625 378.359375 155.375 377.761719 156.261719 C 377.167969 157.152344 376.617188 158.070312 376.113281 159.011719 C 375.609375 159.957031 375.152344 160.921875 374.742188 161.914062 C 374.335938 162.902344 373.972656 163.90625 373.664062 164.929688 C 373.351562 165.957031 373.09375 166.992188 372.882812 168.042969 C 372.675781 169.089844 372.519531 170.148438 372.414062 171.214844 C 372.308594 172.277344 372.257812 173.347656 372.257812 174.414062 L 372.257812 216.730469 C 357.132812 219.53125 342.8125 224.59375 329.289062 231.921875 C 327.386719 232.808594 325.511719 233.75 323.664062 234.753906 C 321.820312 235.757812 320.007812 236.816406 318.230469 237.933594 C 316.449219 239.050781 314.707031 240.222656 313 241.449219 C 311.296875 242.675781 309.632812 243.953125 308.003906 245.285156 C 306.378906 246.613281 304.796875 247.992188 303.257812 249.421875 C 301.71875 250.851562 300.226562 252.328125 298.78125 253.851562 C 297.335938 255.375 295.9375 256.941406 294.589844 258.554688 C 293.242188 260.164062 291.945312 261.816406 290.703125 263.507812 C 289.457031 265.199219 288.269531 266.929688 287.132812 268.695312 C 285.996094 270.464844 284.917969 272.265625 283.894531 274.097656 C 282.871094 275.933594 281.90625 277.796875 281 279.691406 C 280.09375 281.589844 279.25 283.511719 278.464844 285.457031 C 277.679688 287.40625 276.953125 289.375 276.292969 291.371094 C 275.628906 293.363281 275.03125 295.375 274.496094 297.40625 C 273.960938 299.4375 273.488281 301.484375 273.082031 303.542969 C 272.675781 305.605469 272.332031 307.675781 272.054688 309.757812 C 271.777344 311.839844 271.566406 313.929688 271.417969 316.023438 C 271.273438 318.117188 271.191406 320.21875 271.175781 322.316406 C 271.160156 324.417969 271.210938 326.515625 271.328125 328.613281 C 271.445312 330.710938 271.628906 332.800781 271.875 334.886719 C 272.125 336.972656 272.4375 339.050781 272.816406 341.117188 C 273.191406 343.183594 273.636719 345.234375 274.140625 347.273438 C 274.648438 349.3125 275.21875 351.332031 275.851562 353.332031 C 276.484375 355.335938 277.183594 357.316406 277.941406 359.277344 C 278.699219 361.234375 279.515625 363.167969 280.394531 365.078125 C 281.273438 366.984375 282.210938 368.863281 283.207031 370.710938 C 284.207031 372.558594 285.257812 374.375 286.371094 376.160156 C 287.480469 377.941406 288.644531 379.6875 289.867188 381.398438 C 291.085938 383.105469 292.359375 384.777344 293.683594 386.40625 C 295.007812 388.035156 296.382812 389.621094 297.808594 391.167969 C 299.230469 392.710938 300.703125 394.207031 302.222656 395.660156 C 303.738281 397.109375 305.300781 398.511719 306.910156 399.867188 C 311.539062 404.15625 316.40625 408.160156 321.507812 411.878906 C 326.609375 415.597656 331.910156 419.003906 337.414062 422.101562 C 342.917969 425.195312 348.582031 427.957031 354.410156 430.386719 C 360.234375 432.816406 366.183594 434.894531 372.257812 436.625 L 372.257812 538.402344 C 364.367188 536.472656 356.828125 533.613281 349.640625 529.828125 C 342.453125 526.039062 335.835938 521.4375 329.78125 516.023438 C 328.996094 515.335938 328.183594 514.691406 327.339844 514.082031 C 326.496094 513.476562 325.621094 512.910156 324.722656 512.386719 C 323.824219 511.863281 322.902344 511.382812 321.957031 510.945312 C 321.015625 510.507812 320.050781 510.121094 319.070312 509.773438 C 318.085938 509.429688 317.089844 509.136719 316.082031 508.886719 C 315.070312 508.636719 314.050781 508.4375 313.023438 508.285156 C 311.992188 508.132812 310.957031 508.03125 309.917969 507.980469 C 308.878906 507.925781 307.839844 507.921875 306.800781 507.96875 C 305.761719 508.015625 304.726562 508.113281 303.699219 508.257812 C 302.667969 508.402344 301.644531 508.597656 300.632812 508.839844 C 299.621094 509.082031 298.625 509.375 297.640625 509.710938 C 296.65625 510.050781 295.691406 510.433594 294.746094 510.863281 C 293.796875 511.296875 292.871094 511.769531 291.972656 512.289062 C 291.070312 512.808594 290.195312 513.367188 289.347656 513.972656 C 288.496094 514.574219 287.679688 515.214844 286.894531 515.894531 C 286.105469 516.574219 285.351562 517.292969 284.632812 518.042969 C 283.917969 518.796875 283.234375 519.582031 282.589844 520.398438 C 281.949219 521.21875 281.34375 522.0625 280.78125 522.9375 C 280.21875 523.8125 279.699219 524.714844 279.222656 525.636719 C 278.746094 526.5625 278.316406 527.507812 277.929688 528.472656 C 277.542969 529.441406 277.203125 530.421875 276.910156 531.421875 C 276.617188 532.417969 276.371094 533.429688 276.175781 534.449219 C 275.980469 535.472656 275.832031 536.5 275.734375 537.535156 C 275.636719 538.574219 275.589844 539.609375 275.589844 540.652344 C 275.589844 541.691406 275.640625 542.730469 275.742188 543.765625 C 275.84375 544.800781 275.992188 545.828125 276.191406 546.851562 C 276.390625 547.871094 276.636719 548.882812 276.933594 549.878906 C 277.226562 550.875 277.570312 551.859375 277.957031 552.824219 C 278.347656 553.789062 278.78125 554.730469 279.261719 555.65625 C 279.738281 556.578125 280.261719 557.476562 280.824219 558.351562 C 281.390625 559.226562 281.996094 560.070312 282.640625 560.886719 C 283.289062 561.703125 283.96875 562.484375 284.691406 563.234375 C 290.757812 568.792969 297.195312 573.871094 304.011719 578.480469 C 310.828125 583.085938 317.941406 587.164062 325.359375 590.722656 C 332.777344 594.277344 340.414062 597.273438 348.273438 599.703125 C 356.132812 602.132812 364.125 603.972656 372.257812 605.222656 L 372.257812 639.203125 C 372.257812 640.273438 372.308594 641.339844 372.414062 642.40625 C 372.519531 643.46875 372.675781 644.527344 372.882812 645.578125 C 373.09375 646.625 373.351562 647.664062 373.664062 648.6875 C 373.972656 649.710938 374.335938 650.71875 374.742188 651.707031 C 375.152344 652.695312 375.609375 653.660156 376.113281 654.605469 C 376.617188 655.546875 377.167969 656.464844 377.761719 657.355469 C 378.359375 658.246094 378.996094 659.101562 379.671875 659.929688 C 380.351562 660.757812 381.070312 661.550781 381.828125 662.304688 C 382.582031 663.0625 383.375 663.78125 384.203125 664.460938 C 385.03125 665.136719 385.886719 665.773438 386.777344 666.371094 C 387.667969 666.964844 388.585938 667.511719 389.527344 668.019531 C 390.472656 668.523438 391.4375 668.980469 392.425781 669.390625 C 393.414062 669.796875 394.421875 670.160156 395.445312 670.46875 C 396.46875 670.78125 397.507812 671.039062 398.554688 671.25 C 399.605469 671.457031 400.664062 671.613281 401.726562 671.71875 C 402.792969 671.824219 403.859375 671.875 404.929688 671.875 C 406 671.875 407.066406 671.824219 408.132812 671.71875 C 409.199219 671.613281 410.253906 671.457031 411.304688 671.25 C 412.355469 671.039062 413.390625 670.78125 414.414062 670.46875 C 415.4375 670.160156 416.445312 669.796875 417.433594 669.390625 C 418.421875 668.980469 419.390625 668.523438 420.332031 668.019531 C 421.277344 667.515625 422.191406 666.964844 423.082031 666.371094 C 423.972656 665.773438 424.832031 665.136719 425.660156 664.460938 C 426.484375 663.78125 427.277344 663.0625 428.035156 662.304688 C 428.789062 661.550781 429.507812 660.757812 430.1875 659.929688 C 430.867188 659.101562 431.503906 658.246094 432.097656 657.355469 C 432.691406 656.464844 433.242188 655.546875 433.746094 654.605469 C 434.25 653.660156 434.707031 652.695312 435.117188 651.707031 C 435.527344 650.71875 435.886719 649.710938 436.199219 648.6875 C 436.507812 647.664062 436.769531 646.625 436.976562 645.578125 C 437.183594 644.527344 437.34375 643.46875 437.445312 642.40625 C 437.550781 641.339844 437.605469 640.273438 437.605469 639.203125 L 437.605469 604.730469 C 453.128906 601.828125 467.886719 596.710938 481.878906 589.375 C 483.773438 588.472656 485.644531 587.515625 487.480469 586.5 C 489.316406 585.480469 491.121094 584.40625 492.890625 583.277344 C 494.660156 582.144531 496.394531 580.960938 498.089844 579.722656 C 499.785156 578.480469 501.441406 577.191406 503.054688 575.847656 C 504.671875 574.503906 506.242188 573.113281 507.769531 571.671875 C 509.296875 570.230469 510.777344 568.742188 512.210938 567.207031 C 513.644531 565.671875 515.03125 564.09375 516.367188 562.472656 C 517.703125 560.851562 518.984375 559.191406 520.214844 557.488281 C 521.445312 555.789062 522.625 554.050781 523.746094 552.273438 C 524.867188 550.496094 525.933594 548.6875 526.941406 546.847656 C 527.949219 545.003906 528.898438 543.132812 529.789062 541.230469 C 530.679688 539.328125 531.511719 537.402344 532.28125 535.445312 C 533.050781 533.492188 533.761719 531.515625 534.40625 529.519531 C 535.054688 527.519531 535.636719 525.503906 536.15625 523.46875 C 536.675781 521.433594 537.132812 519.382812 537.523438 517.320312 C 537.914062 515.257812 538.242188 513.183594 538.503906 511.097656 C 538.761719 509.015625 538.960938 506.925781 539.089844 504.828125 C 539.21875 502.730469 539.285156 500.632812 539.28125 498.535156 C 539.28125 496.433594 539.214844 494.335938 539.082031 492.238281 C 538.949219 490.144531 538.75 488.054688 538.484375 485.96875 C 538.222656 483.886719 537.890625 481.8125 537.496094 479.75 C 537.105469 477.6875 536.644531 475.636719 536.121094 473.601562 C 535.601562 471.570312 535.015625 469.554688 534.367188 467.554688 C 533.714844 465.558594 533.003906 463.582031 532.234375 461.628906 C 531.460938 459.675781 530.625 457.75 529.734375 455.847656 C 528.839844 453.949219 527.886719 452.078125 526.875 450.238281 C 525.863281 448.394531 524.796875 446.589844 523.671875 444.8125 C 522.546875 443.039062 521.371094 441.304688 520.136719 439.601562 C 518.902344 437.902344 517.617188 436.242188 516.28125 434.625 C 514.941406 433.003906 513.554688 431.429688 512.121094 429.894531 C 510.683594 428.363281 509.199219 426.878906 507.671875 425.4375 C 506.140625 424 504.570312 422.609375 502.953125 421.265625 C 498.320312 416.949219 493.453125 412.914062 488.355469 409.164062 C 483.253906 405.410156 477.953125 401.964844 472.449219 398.832031 C 466.949219 395.695312 461.285156 392.890625 455.457031 390.414062 C 449.632812 387.933594 443.679688 385.804688 437.605469 384.019531 Z M 352.160156 352.488281 C 349.675781 350.40625 347.457031 348.074219 345.5 345.488281 C 343.542969 342.90625 341.898438 340.132812 340.570312 337.175781 C 339.238281 334.21875 338.257812 331.152344 337.621094 327.972656 C 336.984375 324.792969 336.714844 321.585938 336.804688 318.34375 C 337.558594 315.1875 338.652344 312.148438 340.089844 309.238281 C 341.527344 306.328125 343.273438 303.613281 345.324219 301.09375 C 347.375 298.578125 349.679688 296.320312 352.242188 294.324219 C 354.800781 292.328125 357.550781 290.640625 360.492188 289.265625 C 364.261719 287.265625 368.183594 285.632812 372.257812 284.363281 L 372.257812 366.046875 C 364.679688 362.542969 357.761719 358.023438 351.507812 352.488281 Z M 473.710938 502.953125 C 473.34375 504.523438 472.886719 506.070312 472.34375 507.59375 C 471.800781 509.113281 471.171875 510.597656 470.457031 512.046875 C 469.746094 513.496094 468.953125 514.898438 468.078125 516.257812 C 467.203125 517.613281 466.253906 518.917969 465.230469 520.167969 C 464.207031 521.417969 463.117188 522.605469 461.957031 523.730469 C 460.796875 524.851562 459.578125 525.90625 458.296875 526.890625 C 457.019531 527.875 455.6875 528.785156 454.300781 529.617188 C 452.917969 530.449219 451.492188 531.199219 450.019531 531.867188 C 445.847656 534.15625 441.492188 536.007812 436.949219 537.421875 L 436.949219 453.941406 C 444.796875 457.671875 451.933594 462.464844 458.351562 468.316406 C 459.601562 469.371094 460.789062 470.492188 461.914062 471.683594 C 463.035156 472.871094 464.089844 474.121094 465.070312 475.429688 C 466.050781 476.738281 466.957031 478.097656 467.785156 479.507812 C 468.613281 480.917969 469.355469 482.371094 470.019531 483.867188 C 470.683594 485.359375 471.257812 486.890625 471.75 488.449219 C 472.238281 490.011719 472.640625 491.59375 472.949219 493.199219 C 473.261719 494.804688 473.480469 496.421875 473.605469 498.054688 C 473.734375 499.683594 473.765625 501.316406 473.710938 502.953125 Z M 473.710938 502.953125 " fill-opacity="1" fill-rule="nonzero"/></svg>